# xmcd
#
# Track frame offsets:
#  150
#  9970
#  20485
#  37158
#  64733
#  88293
#  103525
#  115865
#  129928
#  140445
#  157125
#  175468
#  198820
#  213565
#  228828
#  241340
#  268305
#
# Disc length: 3978 seconds
#
# Revision: 0
# Processed by: cddbd v1.4PL0 Copyright (c) Steve Scherf et al.
# Submitted via: AltoMP3_Maker 3.0
#
DISCID=ef0f8811
DTITLE=Rainbow Records - Rainbow Covers the Holidays
DYEAR=1900
DGENRE=
TTITLE0=Hang Up Your Stocking
TTITLE1=Christmas Show Medley
TTITLE2=Carol of the Bells
TTITLE3=Have Yourself a Merry Little Christmas
TTITLE4=Little Drummer Boy
TTITLE5=It Kind of Looks Like Christmas
TTITLE6=Christmas Don't Be Late
TTITLE7=Deck the Halls
TTITLE8=O Come All Ye Merry Christmas
TTITLE9=Silver Bells
TTITLE10=Do You Hear What I Hear
TTITLE11=God Rest Ye Merry Gentleman
TTITLE12=All I Want for Christmas
TTITLE13=We Three Kings
TTITLE14=Jingle Bells
TTITLE15=What Child Is This
TTITLE16=Christmas Greetings
EXTD=
EXTT0=
EXTT1=
EXTT2=
EXTT3=
EXTT4=
EXTT5=
EXTT6=
EXTT7=
EXTT8=
EXTT9=
EXTT10=
EXTT11=
EXTT12=
EXTT13=
EXTT14=
EXTT15=
EXTT16=
PLAYORDER=
